<?xml version="1.0" encoding="iso-8859-1"?>
<!-- Generator: Adobe Illustrator 19.0.0, SVG Export Plug-In . SVG Version: 6.00 Build 0)  -->
<svg xmlns="http://www.w3.org/2000/svg" xmlns:xlink="http://www.w3.org/1999/xlink" version="1.1" id="Layer_1" x="0px" y="0px" viewBox="0 0 511.799 511.799" style="enable-background:new 0 0 511.799 511.799;" xml:space="preserve" width="512" height="512">
<g>
	<g>
		<g>
			<g>
				<g>
					<rect x="107.774" y="358.965" style="fill:#1E4751;" width="50.152" height="145.535"/>
				</g>
				<path style="fill:#1E4751;" d="M162.549,504.299h-59.398c-5.95,0-10.774-4.824-10.774-10.774v-8.265      c0-5.95,4.824-10.774,10.774-10.774h59.398c5.95,0,10.774,4.824,10.774,10.774v8.265      C173.323,499.476,168.499,504.299,162.549,504.299z"/>
				<g>
					<g>
						<rect x="353.874" y="358.965" style="fill:#1E4751;" width="50.152" height="145.535"/>
					</g>
				</g>
			</g>
			<g>
				<path style="fill:#F43B45;" d="M399.822,325.983H111.977V70.729c0-34.92,28.308-63.229,63.229-63.229h161.387      c34.92,0,63.229,28.308,63.229,63.229V325.983z"/>
				<path style="fill:#D82B2B;" d="M336.593,7.5h-51.202c34.92,0,63.229,28.308,63.229,63.229v255.254h51.202V70.729      C399.822,35.808,371.514,7.5,336.593,7.5z"/>
				<path style="fill:#D82B2B;" d="M111.977,364.233L111.977,364.233l0-143.651c0-9.663-7.834-17.497-17.497-17.497H66.257      c-9.663,0-17.497,7.834-17.497,17.497v80.435C48.76,335.93,77.064,364.233,111.977,364.233z"/>
				<path style="fill:#F43B45;" d="M399.822,364.233L399.822,364.233l0-143.651c0-9.663,7.834-17.497,17.497-17.497h28.223      c9.663,0,17.497,7.834,17.497,17.497v80.435C463.039,335.93,434.736,364.233,399.822,364.233z"/>
			</g>
		</g>
		<path style="fill:#345863;" d="M402.652,402.768H109.147c-9.262,0-16.77-7.508-16.77-16.77v-40.636h327.046v40.636    C419.422,395.26,411.914,402.768,402.652,402.768z"/>
		<path style="fill:#FF4A5C;" d="M420.129,374.065H91.671c-16.371,0-29.643-13.272-29.643-29.643v0    c0-25.93,21.021-46.951,46.951-46.951h293.842c25.93,0,46.951,21.021,46.951,46.951v0    C449.772,360.793,436.5,374.065,420.129,374.065z"/>
		<path style="fill:#1E4751;" d="M408.649,504.299H349.25c-5.95,0-10.774-4.824-10.774-10.774v-8.265    c0-5.95,4.824-10.774,10.774-10.774h59.398c5.95,0,10.774,4.824,10.774,10.774v8.265    C419.422,499.476,414.599,504.299,408.649,504.299z"/>
	</g>
	<g>
		<path d="M470.539,220.582c0-13.783-11.214-24.997-24.997-24.997h-28.223c-3.552,0-6.934,0.745-9.997,2.087V153.93    c0-4.142-3.358-7.5-7.5-7.5s-7.5,3.358-7.5,7.5v136.042H119.477V153.93c0-4.142-3.358-7.5-7.5-7.5s-7.5,3.358-7.5,7.5v43.741    c-3.063-1.342-6.445-2.087-9.997-2.087H66.258c-13.783,0-24.997,11.214-24.997,24.997v80.435c0,14.99,4.591,29.196,13.308,41.273    c-0.027,0.708-0.041,1.419-0.041,2.133c0,18.161,13.101,33.319,30.349,36.52v5.057c0,10.253,6.391,19.041,15.397,22.591v58.624    c-8.714,1.384-15.397,8.95-15.397,18.047v8.265c0,10.076,8.198,18.274,18.274,18.274h59.398c10.076,0,18.274-8.198,18.274-18.274    v-8.265c0-9.098-6.683-16.664-15.397-18.047v-56.944h180.948v56.944c-8.714,1.384-15.397,8.95-15.397,18.047v8.265    c0,10.076,8.198,18.274,18.274,18.274h59.398c10.076,0,18.274-8.198,18.274-18.274v-8.265c0-9.098-6.683-16.664-15.397-18.047    v-58.624c9.007-3.55,15.397-12.338,15.397-22.591v-5.057c17.248-3.201,30.349-18.359,30.349-36.52    c0-0.714-0.014-1.425-0.041-2.133c8.717-12.077,13.308-26.283,13.308-41.273V220.582z M59.891,320.866    c-2.396-6.265-3.63-12.953-3.63-19.85v-80.435c0-5.512,4.485-9.997,9.997-9.997H94.48c5.512,0,9.997,4.485,9.997,9.997v69.574    C84.811,291.772,68.072,303.886,59.891,320.866z M165.823,485.26v8.265c0,1.805-1.469,3.274-3.274,3.274h-59.398    c-1.805,0-3.274-1.469-3.274-3.274v-8.265c0-1.805,1.469-3.274,3.274-3.274h59.398    C164.354,481.986,165.823,483.455,165.823,485.26z M115.274,466.986v-56.718h35.151v56.718H115.274z M411.923,485.26v8.265    c0,1.805-1.469,3.274-3.274,3.274H349.25c-1.805,0-3.274-1.469-3.274-3.274v-8.265c0-1.805,1.469-3.274,3.274-3.274h59.398    C410.454,481.986,411.923,483.455,411.923,485.26z M361.374,466.986v-56.718h35.151v56.718H361.374z M411.923,385.998    c0,5.112-4.159,9.271-9.27,9.271H109.147c-5.111,0-9.27-4.159-9.27-9.271v-4.433h312.046V385.998z M420.129,366.565H91.671    c-12.21,0-22.143-9.933-22.143-22.143c0-21.753,17.697-39.451,39.451-39.451h293.843c21.753,0,39.451,17.697,39.451,39.451    C442.272,356.632,432.339,366.565,420.129,366.565z M455.539,301.016c0,6.898-1.235,13.585-3.63,19.85    c-8.181-16.981-24.92-29.094-44.587-30.711v-69.574c0-5.512,4.485-9.997,9.997-9.997h28.223c5.512,0,9.997,4.485,9.997,9.997    V301.016z"/>
		<path d="M111.977,131.412c4.142,0,7.5-3.358,7.5-7.5V70.729c0-30.729,25-55.729,55.729-55.729h161.388    c30.729,0,55.729,25,55.729,55.729v53.184c0,4.142,3.358,7.5,7.5,7.5s7.5-3.358,7.5-7.5V70.729c0-39-31.729-70.729-70.729-70.729    H175.206c-39,0-70.729,31.729-70.729,70.729v53.184C104.477,128.054,107.835,131.412,111.977,131.412z"/>
	</g>
</g>















</svg>
